<svg width="295" height="302" viewBox="0 0 295 302" fill="none" xmlns="http://www.w3.org/2000/svg">
<path fill-rule="evenodd" clip-rule="evenodd" d="M243.436 76.809C194.77 161.441 237.298 231.534 165.205 302C362.043 258.662 241.205 124.336 295 20C235.255 39.3359 189.922 69.642 159 110.918C195.797 152.702 202.697 201.664 179.701 257.805C216.794 207.042 188.983 151.65 243.436 76.809Z" fill="#8DC641"/>
<path fill-rule="evenodd" clip-rule="evenodd" d="M159.491 278.115C198.174 199.688 190.055 136.722 128.166 97.9218C99.4114 81.6717 75.0783 66.849 56.6563 50.529C38.2345 34.209 25.2269 17.3657 17.6335 0C-26.8497 139.572 12.8289 238.238 136.668 296C163.347 202.906 56.8374 175.533 30.1634 76.4594C66.6363 161.845 161.43 192.684 159.491 278.115Z" fill="#548641"/>
</svg>
