<svg width="1446" height="430" viewBox="0 0 1446 430" fill="none" xmlns="http://www.w3.org/2000/svg">
<path fill-rule="evenodd" clip-rule="evenodd" d="M243.436 76.809C194.77 161.441 237.298 231.534 165.205 302C362.043 258.662 241.205 124.336 295 20C235.255 39.3359 189.922 69.642 159 110.918C195.797 152.702 202.697 201.664 179.701 257.805C216.794 207.042 188.983 151.65 243.436 76.809Z" fill="#8DC641"/>
<path fill-rule="evenodd" clip-rule="evenodd" d="M159.491 278.115C198.174 199.688 190.055 136.722 128.166 97.9218C99.4114 81.6717 75.0783 66.849 56.6563 50.529C38.2345 34.209 25.2269 17.3657 17.6335 0C-26.8497 139.572 12.8289 238.238 136.668 296C163.347 202.906 56.8374 175.533 30.1634 76.4594C66.6363 161.845 161.43 192.684 159.491 278.115Z" fill="#548641"/>
<path d="M180.23 401L155.259 313.727H175.415L189.861 374.366H190.585L206.523 313.727H223.781L239.676 374.494H240.443L254.889 313.727H275.045L250.074 401H232.091L215.472 343.94H214.79L198.213 401H180.23ZM291.175 401H271.402L301.53 313.727H325.308L355.393 401H335.621L313.76 333.67H313.078L291.175 401ZM289.939 366.696H336.643V381.099H289.939V366.696ZM365.898 401V313.727H423.682V328.94H384.349V349.736H419.847V364.949H384.349V401H365.898ZM436.093 401V313.727H470.525C477.116 313.727 482.741 314.906 487.4 317.264C492.087 319.594 495.653 322.903 498.096 327.193C500.567 331.455 501.803 336.469 501.803 342.236C501.803 348.031 500.553 353.017 498.053 357.193C495.553 361.341 491.931 364.523 487.187 366.739C482.471 368.955 476.761 370.062 470.056 370.062H447.002V355.233H467.073C470.596 355.233 473.522 354.75 475.852 353.784C478.181 352.818 479.914 351.369 481.05 349.438C482.215 347.506 482.798 345.105 482.798 342.236C482.798 339.338 482.215 336.895 481.05 334.906C479.914 332.918 478.167 331.412 475.809 330.389C473.479 329.338 470.539 328.812 466.988 328.812H454.545V401H436.093ZM483.224 361.284L504.914 401H484.545L463.323 361.284H483.224ZM529.886 401H510.113L540.241 313.727H564.019L594.104 401H574.332L552.471 333.67H551.789L529.886 401ZM528.65 366.696H575.354V381.099H528.65V366.696ZM604.609 401V313.727H623.06V349.736H660.518V313.727H678.927V401H660.518V364.949H623.06V401H604.609ZM736.956 401H717.183L747.311 313.727H771.089L801.175 401H781.402L759.541 333.67H758.859L736.956 401ZM735.72 366.696H782.425V381.099H735.72V366.696ZM811.679 401V313.727H830.131V385.787H867.545V401H811.679ZM907.538 401V313.727H925.99V352.207H927.141L958.547 313.727H980.663L948.277 352.804L981.047 401H958.973L935.067 365.119L925.99 376.199V401H907.538ZM990.273 401V313.727H1008.72V349.736H1046.18V313.727H1064.59V401H1046.18V364.949H1008.72V401H990.273ZM1094.85 401H1075.07L1105.2 313.727H1128.98L1159.07 401H1139.29L1117.43 333.67H1116.75L1094.85 401ZM1093.61 366.696H1140.32V381.099H1093.61V366.696ZM1169.57 401V313.727H1188.02V385.787H1225.44V401H1169.57ZM1237.66 401V313.727H1296.46V328.94H1256.11V349.736H1293.44V364.949H1256.11V385.787H1296.63V401H1237.66ZM1311.13 401V313.727H1369.94V328.94H1329.58V349.736H1366.91V364.949H1329.58V385.787H1370.11V401H1311.13ZM1419.55 313.727H1437.79V374.58C1437.79 380.205 1436.53 385.091 1434 389.239C1431.5 393.386 1428.02 396.582 1423.56 398.827C1419.1 401.071 1413.91 402.193 1408 402.193C1402.75 402.193 1397.98 401.27 1393.69 399.423C1389.42 397.548 1386.04 394.707 1383.54 390.901C1381.04 387.065 1379.81 382.25 1379.84 376.455H1398.2C1398.26 378.756 1398.73 380.73 1399.61 382.378C1400.52 383.997 1401.75 385.247 1403.32 386.128C1404.91 386.98 1406.78 387.406 1408.94 387.406C1411.21 387.406 1413.13 386.923 1414.69 385.957C1416.28 384.963 1417.49 383.514 1418.32 381.611C1419.14 379.707 1419.55 377.364 1419.55 374.58V313.727Z" fill="#548237"/>
<path d="M371.76 253.28V242.24H382.92V253.28H371.76ZM405.72 233V219.08C406.2 219.08 406.56 219.24 406.8 219.56C407.12 219.88 407.36 220.36 407.52 221C407.76 221.64 407.92 222.4 408 223.28C408.08 224.08 408.12 225 408.12 226.04C408.12 227.08 408.08 228.04 408 228.92C407.92 229.8 407.76 230.56 407.52 231.2C407.36 231.76 407.12 232.2 406.8 232.52C406.56 232.84 406.2 233 405.72 233ZM364.08 271.76C357.6 271.76 351.92 270.72 347.04 268.64C342.24 266.56 338.48 263.52 335.76 259.52C333.12 255.6 331.8 250.92 331.8 245.48C331.8 239.96 333.12 235.24 335.76 231.32C338.48 227.4 342.24 224.4 347.04 222.32C351.92 220.16 357.64 219.08 364.2 219.08H377.16V201.32C377.16 196.52 375.64 192.88 372.6 190.4C369.56 187.92 364.84 186.68 358.44 186.68C356.44 186.68 353.76 186.84 350.4 187.16C347.12 187.48 343.44 187.92 339.36 188.48L337.92 175.88C341.44 175 345.08 174.28 348.84 173.72C352.6 173.08 356.24 172.76 359.76 172.76C366.32 172.76 372.08 173.92 377.04 176.24C382.08 178.48 386 181.72 388.8 185.96C391.68 190.2 393.12 195.32 393.12 201.32V233H364.2C358.52 233 354.36 234.04 351.72 236.12C349.16 238.2 347.88 241.32 347.88 245.48C347.88 249.64 349.16 252.76 351.72 254.84C354.36 256.92 358.48 257.96 364.08 257.96C365.12 257.96 366.28 257.88 367.56 257.72C368.92 257.64 370.52 257.52 372.36 257.36L373.32 270.92C371.96 271.16 370.48 271.36 368.88 271.52C367.28 271.68 365.68 271.76 364.08 271.76ZM393.12 233V219.08H405.72V233H393.12ZM440.79 233V219.08H455.79V233H440.79ZM455.79 233V219.08C456.19 219.08 456.55 219.24 456.87 219.56C457.19 219.88 457.43 220.36 457.59 221C457.75 221.64 457.87 222.4 457.95 223.28C458.11 224.08 458.19 225 458.19 226.04C458.19 227.08 458.11 228.04 457.95 228.92C457.87 229.8 457.75 230.56 457.59 231.2C457.43 231.76 457.19 232.2 456.87 232.52C456.63 232.84 456.27 233 455.79 233ZM405.75 233C405.27 233 404.91 232.84 404.67 232.52C404.35 232.2 404.11 231.76 403.95 231.2C403.71 230.56 403.55 229.8 403.47 228.92C403.39 228.04 403.35 227.08 403.35 226.04C403.35 224.6 403.43 223.4 403.59 222.44C403.75 221.4 404.03 220.6 404.43 220.04C404.75 219.4 405.19 219.08 405.75 219.08V233ZM405.75 233V219.08H434.19L424.83 226.88V172.76H440.79V233H405.75ZM410.07 258.56V244.88H425.55V258.56H410.07ZM431.91 258.56V244.88H447.39V258.56H431.91ZM485.429 233V219.08H498.029V233H485.429ZM455.789 233C455.309 233 454.949 232.84 454.709 232.52C454.389 232.2 454.149 231.76 453.989 231.2C453.749 230.56 453.589 229.8 453.509 228.92C453.429 228.04 453.389 227.08 453.389 226.04C453.389 224.6 453.469 223.4 453.629 222.44C453.789 221.4 454.069 220.6 454.469 220.04C454.789 219.4 455.229 219.08 455.789 219.08V233ZM469.349 233V148.16H485.429V233H469.349ZM455.789 233V219.08H469.349V233H455.789ZM498.029 233V219.08C498.509 219.08 498.909 219.24 499.229 219.56C499.549 219.88 499.789 220.36 499.949 221C500.109 221.64 500.229 222.4 500.309 223.28C500.389 224.08 500.429 225 500.429 226.04C500.429 227.08 500.389 228.04 500.309 228.92C500.229 229.8 500.109 230.56 499.949 231.2C499.789 231.76 499.549 232.2 499.229 232.52C498.909 232.84 498.509 233 498.029 233ZM560.137 233V219.08H572.857V233H560.137ZM497.977 233C497.497 233 497.137 232.84 496.897 232.52C496.577 232.2 496.337 231.76 496.177 231.2C495.937 230.56 495.777 229.8 495.697 228.92C495.617 228.04 495.577 227.08 495.577 226.04C495.577 224.6 495.657 223.4 495.817 222.44C495.977 221.4 496.257 220.6 496.657 220.04C496.977 219.4 497.417 219.08 497.977 219.08V233ZM497.977 233V219.08H549.577L544.177 223.52V201.32C544.177 196.52 542.657 192.88 539.617 190.4C536.657 187.92 531.937 186.68 525.457 186.68C523.617 186.68 521.097 186.84 517.897 187.16C514.697 187.4 511.217 187.8 507.457 188.36L505.897 175.64C509.337 174.84 512.817 174.16 516.337 173.6C519.937 173.04 523.457 172.76 526.897 172.76C533.457 172.76 539.217 173.92 544.177 176.24C549.137 178.48 553.017 181.72 555.817 185.96C558.697 190.2 560.137 195.32 560.137 201.32V233H497.977ZM572.857 233V219.08C573.257 219.08 573.617 219.24 573.937 219.56C574.257 219.88 574.497 220.36 574.657 221C574.817 221.64 574.937 222.4 575.017 223.28C575.177 224.08 575.257 225 575.257 226.04C575.257 227.08 575.177 228.04 575.017 228.92C574.937 229.8 574.817 230.56 574.657 231.2C574.497 231.76 574.257 232.2 573.937 232.52C573.617 232.84 573.257 233 572.857 233ZM518.737 163.28V149.6H534.817V163.28H518.737ZM586.419 233V148.16H602.499V233H586.419ZM572.859 233V219.08H586.419V233H572.859ZM572.859 233C572.379 233 572.019 232.84 571.779 232.52C571.459 232.2 571.219 231.76 571.059 231.2C570.819 230.56 570.659 229.8 570.579 228.92C570.499 228.04 570.459 227.08 570.459 226.04C570.459 224.6 570.539 223.4 570.699 222.44C570.859 221.4 571.139 220.6 571.539 220.04C571.859 219.4 572.299 219.08 572.859 219.08V233ZM621.745 233V148.16H637.705V233H621.745ZM679.495 233V205.76C679.495 197.84 680.735 191.48 683.215 186.68C685.695 181.8 689.375 178.28 694.255 176.12C699.135 173.88 705.135 172.76 712.255 172.76C719.455 172.76 725.495 173.88 730.375 176.12C735.255 178.28 738.935 181.8 741.415 186.68C743.895 191.48 745.135 197.84 745.135 205.76V233H679.495ZM695.575 226.28L687.895 219.08H736.735L729.175 226.28V206.12C729.175 201.32 728.695 197.52 727.735 194.72C726.775 191.84 725.055 189.8 722.575 188.6C720.175 187.32 716.735 186.68 712.255 186.68C707.855 186.68 704.415 187.32 701.935 188.6C699.535 189.8 697.855 191.84 696.895 194.72C696.015 197.52 695.575 201.32 695.575 206.12V226.28ZM693.655 161.72V148.04H709.135V161.72H693.655ZM715.495 161.72V148.04H730.975V161.72H715.495ZM777.77 233V219.08H793.25V233H777.77ZM754.49 262.76C753.45 262.76 752.33 262.72 751.13 262.64C749.93 262.56 748.69 262.44 747.41 262.28L748.01 248.6C749.29 248.68 750.49 248.76 751.61 248.84C752.81 248.92 753.69 248.96 754.25 248.96C757.37 248.96 759.85 247.72 761.69 245.24C763.61 242.76 764.57 239.28 764.57 234.8V172.76H780.65V234.8C780.65 240.24 779.53 245.08 777.29 249.32C775.13 253.56 772.09 256.84 768.17 259.16C764.25 261.56 759.69 262.76 754.49 262.76ZM793.25 233V219.08C793.73 219.08 794.09 219.24 794.33 219.56C794.65 219.88 794.89 220.36 795.05 221C795.29 221.64 795.45 222.4 795.53 223.28C795.61 224.08 795.65 225 795.65 226.04C795.65 227.08 795.61 228.04 795.53 228.92C795.45 229.8 795.29 230.56 795.05 231.2C794.89 231.76 794.65 232.2 794.33 232.52C794.09 232.84 793.73 233 793.25 233ZM793.289 233V219.08H849.329L844.409 223.28V183.2L848.489 186.68H833.369C829.849 186.68 827.089 187.12 825.089 188C823.089 188.88 821.689 190.52 820.889 192.92C820.089 195.24 819.689 198.56 819.689 202.88C819.689 207.6 820.089 211.12 820.889 213.44C821.689 215.68 823.089 217.2 825.089 218C827.089 218.72 829.849 219.08 833.369 219.08V231.56C826.569 231.56 820.969 230.6 816.569 228.68C812.169 226.76 808.889 223.72 806.729 219.56C804.649 215.32 803.609 209.76 803.609 202.88C803.609 196.32 804.649 190.8 806.729 186.32C808.889 181.84 812.169 178.48 816.569 176.24C820.969 173.92 826.569 172.76 833.369 172.76H860.489V233H793.289ZM793.289 233C792.809 233 792.449 232.84 792.209 232.52C791.889 232.2 791.649 231.76 791.489 231.2C791.249 230.56 791.089 229.8 791.009 228.92C790.929 228.04 790.889 227.08 790.889 226.04C790.889 224.6 790.969 223.4 791.129 222.44C791.289 221.4 791.569 220.6 791.969 220.04C792.289 219.4 792.729 219.08 793.289 219.08V233ZM827.009 161.72V148.04H843.089V161.72H827.009ZM898.155 262.76C895.195 262.76 892.075 262.52 888.795 262.04C885.595 261.64 882.155 261.08 878.475 260.36L880.875 247.52C884.875 248 888.275 248.36 891.075 248.6C893.875 248.84 896.235 248.96 898.155 248.96C903.915 248.96 908.075 247.92 910.635 245.84C913.195 243.76 914.475 240.64 914.475 236.48V183.8L918.435 186.68H903.435C900.155 186.68 897.515 187.08 895.515 187.88C893.515 188.6 892.035 190.16 891.075 192.56C890.195 194.88 889.755 198.44 889.755 203.24C889.755 207.8 890.155 211.24 890.955 213.56C891.835 215.8 893.275 217.28 895.275 218C897.275 218.72 899.995 219.08 903.435 219.08H914.475V233H903.435C896.635 233 891.035 231.92 886.635 229.76C882.235 227.6 878.955 224.32 876.795 219.92C874.715 215.52 873.675 209.96 873.675 203.24C873.675 196.52 874.715 190.92 876.795 186.44C878.955 181.88 882.235 178.48 886.635 176.24C891.035 173.92 896.635 172.76 903.435 172.76H930.555V236.48C930.555 241.92 929.195 246.6 926.475 250.52C923.835 254.52 920.075 257.56 915.195 259.64C910.395 261.72 904.715 262.76 898.155 262.76Z" fill="#548237"/>
</svg>
