<svg width="966" height="480" viewBox="0 0 966 480" fill="none" xmlns="http://www.w3.org/2000/svg">
<path fill-rule="evenodd" clip-rule="evenodd" d="M307.731 96.6313C246.497 203.835 300.008 292.622 209.297 381.881C456.969 326.985 304.924 156.834 372.612 24.6714C297.438 49.1642 240.397 87.5529 201.489 139.837C247.789 192.765 256.471 254.786 227.536 325.899C274.209 261.598 239.216 191.433 307.731 96.6313Z" fill="#8DC641"/>
<path fill-rule="evenodd" clip-rule="evenodd" d="M201.914 352.049C250.824 252.807 240.558 173.13 162.308 124.032C125.952 103.469 95.1865 84.7126 71.8944 64.0612C48.6026 43.4099 32.1564 22.0964 22.5556 0.121826C-33.6871 176.736 16.4808 301.589 173.058 374.681C206.789 256.88 72.1234 222.242 38.3979 96.8736C84.5127 204.92 204.366 243.944 201.914 352.049Z" fill="#548641"/>
<path d="M176.411 461.564L160.842 407.151H173.409L182.416 444.959H182.867L192.804 407.151H203.564L213.475 445.038H213.953L222.96 407.151H235.527L219.957 461.564H208.745L198.384 425.988H197.958L187.623 461.564H176.411ZM245.583 461.564H233.255L252.039 407.151H266.865L285.622 461.564H273.295L259.665 419.585H259.24L245.583 461.564ZM244.813 440.176H273.932V449.157H244.813V440.176ZM292.172 461.564V407.151H328.199V416.636H303.676V429.602H325.808V439.087H303.676V461.564H292.172ZM335.937 461.564V407.151H357.405C361.514 407.151 365.021 407.886 367.926 409.356C370.849 410.809 373.072 412.872 374.595 415.547C376.136 418.204 376.907 421.33 376.907 424.926C376.907 428.539 376.127 431.648 374.569 434.251C373.01 436.837 370.751 438.821 367.793 440.203C364.853 441.584 361.293 442.275 357.113 442.275H342.739V433.029H355.253C357.449 433.029 359.274 432.728 360.726 432.126C362.179 431.524 363.259 430.62 363.968 429.416C364.694 428.211 365.057 426.715 365.057 424.926C365.057 423.119 364.694 421.596 363.968 420.356C363.259 419.116 362.17 418.177 360.7 417.54C359.247 416.884 357.414 416.556 355.2 416.556H347.442V461.564H335.937ZM365.323 436.802L378.846 461.564H366.146L352.915 436.802H365.323ZM394.415 461.564H382.088L400.872 407.151H415.697L434.455 461.564H422.127L408.497 419.585H408.072L394.415 461.564ZM393.645 440.176H422.764V449.157H393.645V440.176ZM441.004 461.564V407.151H452.508V429.602H475.862V407.151H487.34V461.564H475.862V439.087H452.508V461.564H441.004ZM523.52 461.564H511.192L529.977 407.151H544.802L563.56 461.564H551.232L537.602 419.585H537.177L523.52 461.564ZM522.75 440.176H551.869V449.157H522.75V440.176ZM570.109 461.564V407.151H581.613V452.079H604.941V461.564H570.109ZM629.876 461.564V407.151H641.38V431.143H642.097L661.679 407.151H675.468L655.276 431.515L675.707 461.564H661.944L647.039 439.193L641.38 446.101V461.564H629.876ZM681.459 461.564V407.151H692.964V429.602H716.318V407.151H727.795V461.564H716.318V439.087H692.964V461.564H681.459ZM746.659 461.564H734.331L753.116 407.151H767.941L786.699 461.564H774.371L760.741 419.585H760.316L746.659 461.564ZM745.889 440.176H775.008V449.157H745.889V440.176ZM793.248 461.564V407.151H804.752V452.079H828.08V461.564H793.248ZM835.698 461.564V407.151H872.363V416.636H847.203V429.602H870.477V439.087H847.203V452.079H872.47V461.564H835.698ZM881.51 461.564V407.151H918.175V416.636H893.014V429.602H916.288V439.087H893.014V452.079H918.281V461.564H881.51ZM949.108 407.151H960.479V445.091C960.479 448.599 959.691 451.645 958.115 454.231C956.556 456.817 954.386 458.81 951.605 460.209C948.824 461.608 945.592 462.308 941.907 462.308C938.631 462.308 935.655 461.732 932.98 460.581C930.323 459.412 928.216 457.641 926.657 455.267C925.098 452.876 924.328 449.874 924.345 446.261H935.797C935.832 447.695 936.124 448.926 936.673 449.954C937.24 450.963 938.011 451.743 938.985 452.292C939.977 452.823 941.146 453.089 942.492 453.089C943.909 453.089 945.105 452.788 946.079 452.185C947.071 451.565 947.823 450.662 948.337 449.475C948.851 448.289 949.108 446.827 949.108 445.091V407.151Z" fill="#548237"/>
<path d="M406.126 366.105V360.031H412.266V366.105H406.126ZM424.809 354.948V347.29C425.073 347.29 425.271 347.378 425.403 347.554C425.579 347.73 425.711 347.995 425.799 348.347C425.931 348.699 426.019 349.117 426.063 349.601C426.107 350.041 426.129 350.547 426.129 351.119C426.129 351.691 426.107 352.22 426.063 352.704C426.019 353.188 425.931 353.606 425.799 353.958C425.711 354.266 425.579 354.508 425.403 354.684C425.271 354.86 425.073 354.948 424.809 354.948ZM401.901 376.271C398.336 376.271 395.212 375.699 392.527 374.555C389.886 373.411 387.818 371.738 386.322 369.538C384.869 367.381 384.143 364.807 384.143 361.814C384.143 358.777 384.869 356.181 386.322 354.024C387.818 351.867 389.886 350.217 392.527 349.073C395.212 347.885 398.358 347.29 401.967 347.29H409.097V337.52C409.097 334.879 408.261 332.877 406.588 331.512C404.916 330.148 402.319 329.466 398.799 329.466C397.698 329.466 396.224 329.554 394.375 329.73C392.571 329.906 390.547 330.148 388.302 330.456L387.51 323.525C389.446 323.04 391.449 322.644 393.517 322.336C395.586 321.984 397.588 321.808 399.525 321.808C403.134 321.808 406.302 322.446 409.031 323.723C411.804 324.955 413.96 326.737 415.501 329.07C417.085 331.402 417.877 334.219 417.877 337.52V354.948H401.967C398.843 354.948 396.554 355.52 395.102 356.665C393.693 357.809 392.989 359.525 392.989 361.814C392.989 364.102 393.693 365.819 395.102 366.963C396.554 368.107 398.821 368.68 401.901 368.68C402.473 368.68 403.112 368.636 403.816 368.548C404.564 368.504 405.444 368.438 406.456 368.35L406.985 375.809C406.236 375.941 405.422 376.051 404.542 376.139C403.662 376.227 402.782 376.271 401.901 376.271ZM417.877 354.948V347.29H424.809V354.948H417.877ZM444.102 354.948V347.29H452.354V354.948H444.102ZM452.354 354.948V347.29C452.574 347.29 452.772 347.378 452.948 347.554C453.124 347.73 453.256 347.995 453.345 348.347C453.433 348.699 453.499 349.117 453.543 349.601C453.631 350.041 453.675 350.547 453.675 351.119C453.675 351.691 453.631 352.22 453.543 352.704C453.499 353.188 453.433 353.606 453.345 353.958C453.256 354.266 453.124 354.508 452.948 354.684C452.816 354.86 452.618 354.948 452.354 354.948ZM424.825 354.948C424.561 354.948 424.363 354.86 424.231 354.684C424.055 354.508 423.923 354.266 423.835 353.958C423.703 353.606 423.615 353.188 423.571 352.704C423.527 352.22 423.505 351.691 423.505 351.119C423.505 350.327 423.549 349.667 423.637 349.139C423.725 348.567 423.879 348.127 424.099 347.818C424.275 347.466 424.517 347.29 424.825 347.29V354.948ZM424.825 354.948V347.29H440.471L435.322 351.581V321.808H444.102V354.948H424.825ZM427.202 369.01V361.484H435.718V369.01H427.202ZM439.217 369.01V361.484H447.733V369.01H439.217ZM468.66 354.948V347.29H475.591V354.948H468.66ZM452.354 354.948C452.09 354.948 451.892 354.86 451.76 354.684C451.584 354.508 451.452 354.266 451.364 353.958C451.231 353.606 451.143 353.188 451.099 352.704C451.055 352.22 451.033 351.691 451.033 351.119C451.033 350.327 451.077 349.667 451.165 349.139C451.253 348.567 451.408 348.127 451.628 347.818C451.804 347.466 452.046 347.29 452.354 347.29V354.948ZM459.814 354.948V308.275H468.66V354.948H459.814ZM452.354 354.948V347.29H459.814V354.948H452.354ZM475.591 354.948V347.29C475.856 347.29 476.076 347.378 476.252 347.554C476.428 347.73 476.56 347.995 476.648 348.347C476.736 348.699 476.802 349.117 476.846 349.601C476.89 350.041 476.912 350.547 476.912 351.119C476.912 351.691 476.89 352.22 476.846 352.704C476.802 353.188 476.736 353.606 476.648 353.958C476.56 354.266 476.428 354.508 476.252 354.684C476.076 354.86 475.856 354.948 475.591 354.948ZM509.759 354.948V347.29H516.757V354.948H509.759ZM475.563 354.948C475.299 354.948 475.1 354.86 474.968 354.684C474.792 354.508 474.66 354.266 474.572 353.958C474.44 353.606 474.352 353.188 474.308 352.704C474.264 352.22 474.242 351.691 474.242 351.119C474.242 350.327 474.286 349.667 474.374 349.139C474.462 348.567 474.616 348.127 474.836 347.818C475.012 347.466 475.255 347.29 475.563 347.29V354.948ZM475.563 354.948V347.29H503.95L500.979 349.733V337.52C500.979 334.879 500.143 332.877 498.47 331.512C496.842 330.148 494.245 329.466 490.68 329.466C489.668 329.466 488.282 329.554 486.521 329.73C484.761 329.862 482.846 330.082 480.778 330.39L479.92 323.392C481.812 322.952 483.727 322.578 485.663 322.27C487.644 321.962 489.58 321.808 491.473 321.808C495.081 321.808 498.25 322.446 500.979 323.723C503.708 324.955 505.842 326.737 507.382 329.07C508.967 331.402 509.759 334.219 509.759 337.52V354.948H475.563ZM516.757 354.948V347.29C516.977 347.29 517.175 347.378 517.351 347.554C517.527 347.73 517.659 347.995 517.747 348.347C517.835 348.699 517.901 349.117 517.945 349.601C518.033 350.041 518.077 350.547 518.077 351.119C518.077 351.691 518.033 352.22 517.945 352.704C517.901 353.188 517.835 353.606 517.747 353.958C517.659 354.266 517.527 354.508 517.351 354.684C517.175 354.86 516.977 354.948 516.757 354.948ZM486.983 316.593V309.067H495.83V316.593H486.983ZM524.218 354.948V308.275H533.064V354.948H524.218ZM516.758 354.948V347.29H524.218V354.948H516.758ZM516.758 354.948C516.494 354.948 516.296 354.86 516.164 354.684C515.988 354.508 515.856 354.266 515.768 353.958C515.636 353.606 515.548 353.188 515.504 352.704C515.46 352.22 515.438 351.691 515.438 351.119C515.438 350.327 515.482 349.667 515.57 349.139C515.658 348.567 515.812 348.127 516.032 347.818C516.208 347.466 516.45 347.29 516.758 347.29V354.948ZM543.652 354.948V308.275H552.432V354.948H543.652ZM575.422 354.948V339.963C575.422 335.605 576.105 332.107 577.469 329.466C578.833 326.781 580.858 324.845 583.542 323.657C586.227 322.424 589.528 321.808 593.445 321.808C597.406 321.808 600.729 322.424 603.413 323.657C606.098 324.845 608.123 326.781 609.487 329.466C610.851 332.107 611.533 335.605 611.533 339.963V354.948H575.422ZM584.269 351.251L580.044 347.29H606.912L602.753 351.251V340.161C602.753 337.52 602.489 335.429 601.961 333.889C601.433 332.305 600.487 331.182 599.122 330.522C597.802 329.818 595.91 329.466 593.445 329.466C591.024 329.466 589.132 329.818 587.768 330.522C586.447 331.182 585.523 332.305 584.995 333.889C584.511 335.429 584.269 337.52 584.269 340.161V351.251ZM583.212 315.735V308.209H591.728V315.735H583.212ZM595.227 315.735V308.209H603.743V315.735H595.227ZM629.487 354.948V347.29H638.003V354.948H629.487ZM616.68 371.32C616.107 371.32 615.491 371.298 614.831 371.254C614.171 371.21 613.489 371.144 612.785 371.056L613.115 363.53C613.819 363.574 614.479 363.618 615.095 363.662C615.755 363.706 616.239 363.728 616.548 363.728C618.264 363.728 619.628 363.046 620.641 361.682C621.697 360.318 622.225 358.403 622.225 355.938V321.808H631.071V355.938C631.071 358.931 630.455 361.594 629.223 363.926C628.034 366.259 626.362 368.063 624.205 369.34C622.049 370.66 619.54 371.32 616.68 371.32ZM638.003 354.948V347.29C638.267 347.29 638.465 347.378 638.597 347.554C638.773 347.73 638.905 347.995 638.993 348.347C639.125 348.699 639.213 349.117 639.257 349.601C639.301 350.041 639.323 350.547 639.323 351.119C639.323 351.691 639.301 352.22 639.257 352.704C639.213 353.188 639.125 353.606 638.993 353.958C638.905 354.266 638.773 354.508 638.597 354.684C638.465 354.86 638.267 354.948 638.003 354.948ZM638.024 354.948V347.29H668.854L666.147 349.601V327.551L668.392 329.466H660.074C658.137 329.466 656.619 329.708 655.519 330.192C654.418 330.676 653.648 331.578 653.208 332.899C652.768 334.175 652.548 336.002 652.548 338.378C652.548 340.975 652.768 342.911 653.208 344.188C653.648 345.42 654.418 346.256 655.519 346.696C656.619 347.092 658.137 347.29 660.074 347.29V354.156C656.333 354.156 653.252 353.628 650.832 352.572C648.411 351.515 646.607 349.843 645.418 347.554C644.274 345.222 643.702 342.163 643.702 338.378C643.702 334.769 644.274 331.733 645.418 329.268C646.607 326.803 648.411 324.955 650.832 323.723C653.252 322.446 656.333 321.808 660.074 321.808H674.994V354.948H638.024ZM638.024 354.948C637.76 354.948 637.562 354.86 637.43 354.684C637.254 354.508 637.122 354.266 637.034 353.958C636.902 353.606 636.814 353.188 636.77 352.704C636.726 352.22 636.704 351.691 636.704 351.119C636.704 350.327 636.748 349.667 636.836 349.139C636.924 348.567 637.078 348.127 637.298 347.818C637.474 347.466 637.716 347.29 638.024 347.29V354.948ZM656.575 315.735V308.209H665.421V315.735H656.575ZM695.715 371.32C694.087 371.32 692.37 371.188 690.566 370.924C688.805 370.704 686.913 370.396 684.888 370L686.209 362.936C688.409 363.2 690.28 363.398 691.82 363.53C693.36 363.662 694.659 363.728 695.715 363.728C698.884 363.728 701.172 363.156 702.581 362.012C703.989 360.868 704.693 359.151 704.693 356.863V327.882L706.872 329.466H698.62C696.815 329.466 695.363 329.686 694.263 330.126C693.162 330.522 692.348 331.38 691.82 332.701C691.336 333.977 691.094 335.936 691.094 338.576C691.094 341.085 691.314 342.977 691.754 344.254C692.238 345.486 693.03 346.3 694.131 346.696C695.231 347.092 696.727 347.29 698.62 347.29H704.693V354.948H698.62C694.879 354.948 691.798 354.354 689.377 353.166C686.957 351.978 685.152 350.173 683.964 347.752C682.82 345.332 682.248 342.273 682.248 338.576C682.248 334.879 682.82 331.799 683.964 329.334C685.152 326.825 686.957 324.955 689.377 323.723C691.798 322.446 694.879 321.808 698.62 321.808H713.539V356.863C713.539 359.855 712.791 362.43 711.295 364.587C709.842 366.787 707.774 368.46 705.089 369.604C702.449 370.748 699.324 371.32 695.715 371.32Z" fill="#548237"/>
</svg>
